<svg width="130" height="127" viewBox="0 0 130 127" fill="none" xmlns="http://www.w3.org/2000/svg">
<g id="search-empty-icon">
<g id="message-sent-icon">
<g id="Group 2">
<path id="Mask" fill-rule="evenodd" clip-rule="evenodd" d="M130 67C130 83.0409 123.704 97.6148 113.447 108.378C110.095 111.902 106.313 115.017 102.192 117.64C101.969 117.78 101.746 117.919 101.523 118.059C99.5223 119.298 97.4432 120.422 95.293 121.424C87.6058 125.002 79.0368 127 70 127C62.6922 127 55.6881 125.692 49.2107 123.3C46.9797 122.477 44.8124 121.524 42.7159 120.452C26.6017 112.208 14.7044 96.8922 11.1217 78.5983C10.671 76.3035 10.3504 73.9623 10.1716 71.582C10.0588 70.0687 10 68.5403 10 67C10 64.671 10.1322 62.3713 10.3919 60.111C10.5487 58.7371 10.7519 57.378 11.0017 56.0334C16.1519 28.1348 40.6073 7 70 7C80.8661 7 91.0562 9.88727 99.8458 14.9371C101.041 15.6229 102.207 16.3502 103.348 17.1142C103.593 17.2783 103.838 17.4449 104.08 17.6139C104.097 17.6237 104.117 17.6359 104.134 17.6507C106.015 18.9536 107.817 20.3617 109.534 21.8655C113.193 25.0713 116.457 28.7177 119.249 32.7194C126.025 42.4368 130 54.2556 130 67Z" fill="url(#paint0_linear_0_8)"/>
<mask id="mask0_0_8" style="mask-type:alpha" maskUnits="userSpaceOnUse" x="10" y="7" width="120" height="120">
<path id="Mask_2" fill-rule="evenodd" clip-rule="evenodd" d="M130 67C130 83.0409 123.704 97.6148 113.447 108.378C110.095 111.902 106.313 115.017 102.192 117.64C101.969 117.78 101.746 117.919 101.523 118.059C99.5223 119.298 97.4432 120.422 95.293 121.424C87.6058 125.002 79.0368 127 70 127C62.6922 127 55.6881 125.692 49.2107 123.3C46.9797 122.477 44.8124 121.524 42.7159 120.452C26.6017 112.208 14.7044 96.8922 11.1217 78.5983C10.671 76.3035 10.3504 73.9623 10.1716 71.582C10.0588 70.0687 10 68.5403 10 67C10 64.671 10.1322 62.3713 10.3919 60.111C10.5487 58.7371 10.7519 57.378 11.0017 56.0334C16.1519 28.1348 40.6073 7 70 7C80.8661 7 91.0562 9.88727 99.8458 14.9371C101.041 15.6229 102.207 16.3502 103.348 17.1142C103.593 17.2783 103.838 17.4449 104.08 17.6139C104.097 17.6237 104.117 17.6359 104.134 17.6507C106.015 18.9536 107.817 20.3617 109.534 21.8655C113.193 25.0713 116.457 28.7177 119.249 32.7194C126.025 42.4368 130 54.2556 130 67Z" fill="white"/>
</mask>
<g mask="url(#mask0_0_8)">
<path id="Combined Shape" opacity="0.157436" fill-rule="evenodd" clip-rule="evenodd" d="M76.3768 72.1673C81.7954 64.8538 85 55.8011 85 46C85 21.6995 65.3005 2 41 2C16.6995 2 -3 21.6995 -3 46C-3 70.3005 16.6995 90 41 90C51.8833 90 61.8437 86.0487 69.5249 79.5023L75.6373 86.2908L83.0688 79.5995L76.3768 72.1673Z" fill="#DDA319"/>
<g id="Group 2_2">
<path id="Path" d="M120 110.455V110.455C120 115.636 115.636 120 110.455 120V120C107.727 120 105.273 118.909 103.364 117L72.8183 83.7272C71.7272 82.6362 71.7272 81 72.8183 79.909L79.9093 72.818C81.0003 71.7269 82.6365 71.7269 83.7275 72.818L117 103.636C118.909 105.273 120 108 120 110.455Z" fill="#B06328"/>
<path id="Path_2" d="M116.727 103.364L115.091 102C116.454 103.636 117.273 105.818 117.273 108V108C117.273 111.545 112.909 112.909 110.454 110.455L81.8183 81.8182C80.1819 80.1818 77.7273 80.1818 76.0911 81.8182L73.3639 84.5454L103.091 116.454C104.727 118.091 106.909 119.454 109.091 119.727C112.091 120 115.091 118.909 117 117C118.909 115.091 120 112.091 119.727 109.091C119.727 106.909 118.364 105 116.727 103.364Z" fill="#A35425"/>
<path id="Path_3" d="M88.6365 84.5454C88.3637 84.5454 87.8183 84.5454 87.5455 84.2726L80.7273 77.4544C80.1819 76.909 80.1819 76.0908 80.7273 75.5454C81.2727 75 82.0909 75 82.6363 75.5454L89.4545 82.3636C89.9999 82.909 89.9999 83.7272 89.4545 84.2726C89.4547 84.5454 88.9091 84.5454 88.6365 84.5454Z" fill="#C97629"/>
</g>
</g>
</g>
</g>
<g id="search (11)">
<rect id="Rectangle" x="79.0212" y="73.6226" width="7.6361" height="11.4543" transform="rotate(135 79.0212 73.6226)" fill="#F0F0F6"/>
<path id="Path_4" d="M75 75L76.3636 76.3636L79.0908 73.6364L70.909 65.4546L65.4543 70.9092L69.5454 75V75C71.1818 73.3636 73.3636 73.3636 75 75Z" fill="#D8D8EB"/>
<path id="Shape" fill-rule="evenodd" clip-rule="evenodd" d="M0 40.909C0 18.2728 18.2728 0 40.909 0C63.5454 0 81.818 18.2728 81.818 40.909C81.818 63.5452 63.5452 81.818 40.909 81.818C18.2728 81.818 0 63.5452 0 40.909ZM8.1818 40.9092C8.1818 58.9092 22.909 73.6364 40.909 73.6364C58.909 73.6364 73.6362 58.909 73.6362 40.909C73.6362 22.909 58.909 8.1818 40.909 8.1818C22.909 8.1818 8.1818 22.9092 8.1818 40.9092Z" fill="url(#paint1_linear_0_8)"/>
<circle id="Oval" cx="40.909" cy="40.909" r="32.7272" fill="url(#paint2_linear_0_8)"/>
<path id="Path_5" d="M24.8182 44.7272C26.1818 34.3636 34.3636 26.1818 44.7272 24.8182H45C49.6364 24.2728 49.909 17.7272 45.5454 16.9092C42.8182 16.3638 40.0908 16.3638 37.3636 16.6364C26.7272 18.2728 18.2726 26.7274 16.909 37.091C16.3636 39.8182 16.6362 42.8182 17.1818 45.2728C18 49.9092 24.5454 49.3638 25.0908 44.7274C24.8182 45 24.8182 44.7272 24.8182 44.7272Z" fill="white" fill-opacity="0.495274"/>
<path id="Path_6" d="M10.909 43.6364C10.909 25.6364 25.6361 10.9092 43.6361 10.9092C52.0907 10.9092 59.4543 14.182 65.4543 19.091C59.4543 12.2728 50.7272 8.18201 40.909 8.18201C22.909 8.18201 8.18176 22.9092 8.18176 40.9092C8.18176 50.7274 12.5454 59.4546 19.0907 65.4546C14.1818 59.4546 10.909 52.091 10.909 43.6364Z" fill="#DBDBEB"/>
<path id="Path_7" opacity="0.813291" d="M72.4999 35C75.3158 52.7784 62.7783 69.1842 44.9999 72C36.6494 73.3226 27.8197 70.535 21.1257 66.625C28.1184 72.4207 37.3781 75.0959 47.0754 73.56C64.8538 70.7441 77.0958 53.8944 74.28 36.116C72.7441 26.4187 67.069 18.4816 59.6656 13.5794C65.4527 18.7376 71.1773 26.6495 72.4999 35Z" fill="white"/>
</g>
</g>
<defs>
<linearGradient id="paint0_linear_0_8" x1="-27.3404" y1="83.9445" x2="78.187" y2="158.625" gradientUnits="userSpaceOnUse">
<stop stop-color="#BFA75D"/>
<stop offset="1" stop-color="#FFCC4E"/>
</linearGradient>
<linearGradient id="paint1_linear_0_8" x1="112.552" y1="44.7529" x2="38.4223" y2="-16.7162" gradientUnits="userSpaceOnUse">
<stop stop-color="#E8E8F0"/>
<stop offset="1" stop-color="#F7F7FC"/>
</linearGradient>
<linearGradient id="paint2_linear_0_8" x1="-10.2556" y1="54.113" x2="49.0485" y2="103.288" gradientUnits="userSpaceOnUse">
<stop stop-color="#F0E6DD"/>
<stop offset="1" stop-color="#F7EDDF"/>
</linearGradient>
</defs>
</svg>
