<svg width="1920" height="150" viewBox="0 0 1920 150" fill="none" xmlns="http://www.w3.org/2000/svg">
<rect width="1920" height="150" fill="#BFA75D"/>
<mask id="mask0_15_8" style="mask-type:alpha" maskUnits="userSpaceOnUse" x="0" y="0" width="1920" height="150">
<rect width="1920" height="150" fill="#ED1C24"/>
</mask>
<g mask="url(#mask0_15_8)">
<circle cx="26" cy="80" r="90" stroke="#151515" stroke-opacity="0.1" stroke-width="20"/>
<g clip-path="url(#clip0_15_8)">
<path d="M69.4029 55.6942C66.7918 58.3054 64.7067 59.1665 60.7223 59.1665C52.7536 59.1665 46.8334 53.2463 46.8334 45.2776C46.8334 41.2932 47.6946 39.2081 50.3057 36.597L39.889 26.1804L-27.8193 93.8887L-17.4027 104.305C-14.7916 101.694 -12.7065 100.833 -8.72211 100.833C-0.753363 100.833 5.16678 106.753 5.16678 114.722C5.16678 118.706 4.30566 120.791 1.69455 123.403L12.1112 133.819L79.8196 66.1109L69.4029 55.6942Z" stroke="#151515" stroke-opacity="0.1" stroke-width="20" stroke-miterlimit="10"/>
<path d="M15.5835 50.4858L22.5279 57.4302" stroke="#151515" stroke-opacity="0.05" stroke-width="20" stroke-miterlimit="10"/>
<path d="M48.5698 83.4721L55.5143 90.4165" stroke="#151515" stroke-opacity="0.05" stroke-width="20" stroke-miterlimit="10"/>
<path d="M38.1528 73.0557L45.0973 80.0001" stroke="#151515" stroke-opacity="0.1" stroke-width="20" stroke-miterlimit="10"/>
</g>
<circle cx="464" cy="12" r="95" stroke="#151515" stroke-opacity="0.1" stroke-width="10"/>
<g clip-path="url(#clip1_15_8)">
<path d="M507.403 -12.3058C504.792 -9.69464 502.707 -8.83353 498.722 -8.83353C490.754 -8.83353 484.833 -14.7537 484.833 -22.7224C484.833 -26.7068 485.695 -28.7919 488.306 -31.403L477.889 -41.8196L410.181 25.8887L420.597 36.3054C423.208 33.6942 425.294 32.8331 429.278 32.8331C437.247 32.8331 443.167 38.7533 443.167 46.722C443.167 50.7064 442.306 52.7915 439.695 55.4026L450.111 65.8192L517.82 -1.88909L507.403 -12.3058Z" stroke="#151515" stroke-opacity="0.1" stroke-width="10" stroke-miterlimit="10"/>
<path d="M486.57 15.4721L493.514 22.4165" stroke="#151515" stroke-opacity="0.05" stroke-width="10" stroke-miterlimit="10"/>
<path d="M476.153 5.05566L483.097 12.0001" stroke="#151515" stroke-opacity="0.1" stroke-width="10" stroke-miterlimit="10"/>
</g>
<circle cx="200" cy="43" r="24" stroke="#151515" stroke-opacity="0.1" stroke-width="2"/>
<g clip-path="url(#clip2_15_8)">
<path d="M210.851 36.9236C210.198 37.5764 209.677 37.7916 208.681 37.7916C206.689 37.7916 205.209 36.3116 205.209 34.3194C205.209 33.3233 205.424 32.802 206.077 32.1493L203.472 29.5451L186.545 46.4722L189.15 49.0764C189.802 48.4236 190.324 48.2083 191.32 48.2083C193.312 48.2083 194.792 49.6883 194.792 51.6805C194.792 52.6766 194.577 53.1979 193.924 53.8507L196.528 56.4548L213.455 39.5277L210.851 36.9236Z" stroke="#151515" stroke-opacity="0.1" stroke-width="2" stroke-miterlimit="10"/>
<path d="M197.396 35.6215L199.132 37.3576" stroke="#151515" stroke-opacity="0.05" stroke-width="2" stroke-miterlimit="10"/>
<path d="M205.643 43.868L207.379 45.6041" stroke="#151515" stroke-opacity="0.05" stroke-width="2" stroke-miterlimit="10"/>
<path d="M203.039 41.264L204.775 43.0001" stroke="#151515" stroke-opacity="0.1" stroke-width="2" stroke-miterlimit="10"/>
</g>
<circle cx="763" cy="70" r="90" stroke="#151515" stroke-opacity="0.1" stroke-width="20"/>
<g clip-path="url(#clip3_15_8)">
<path d="M806.403 45.6942C803.792 48.3054 801.707 49.1665 797.722 49.1665C789.754 49.1665 783.833 43.2463 783.833 35.2776C783.833 31.2932 784.695 29.2081 787.306 26.597L776.889 16.1804L709.181 83.8887L719.597 94.3054C722.208 91.6942 724.294 90.8331 728.278 90.8331C736.247 90.8331 742.167 96.7533 742.167 104.722C742.167 108.706 741.306 110.791 738.695 113.403L749.111 123.819L816.82 56.1109L806.403 45.6942Z" stroke="#151515" stroke-opacity="0.1" stroke-width="20" stroke-miterlimit="10"/>
<path d="M752.583 40.4858L759.528 47.4302" stroke="#151515" stroke-opacity="0.05" stroke-width="20" stroke-miterlimit="10"/>
<path d="M785.57 73.4721L792.514 80.4165" stroke="#151515" stroke-opacity="0.05" stroke-width="20" stroke-miterlimit="10"/>
<path d="M775.153 63.0557L782.097 70.0001" stroke="#151515" stroke-opacity="0.1" stroke-width="20" stroke-miterlimit="10"/>
</g>
<circle cx="1898" r="90" stroke="#151515" stroke-opacity="0.1" stroke-width="20"/>
<g clip-path="url(#clip4_15_8)">
<path d="M1941.4 -24.3058C1938.79 -21.6946 1936.71 -20.8335 1932.72 -20.8335C1924.75 -20.8335 1918.83 -26.7537 1918.83 -34.7224C1918.83 -38.7068 1919.69 -40.7919 1922.31 -43.403L1911.89 -53.8196L1844.18 13.8887L1854.6 24.3054C1857.21 21.6942 1859.29 20.8331 1863.28 20.8331C1871.25 20.8331 1877.17 26.7533 1877.17 34.722C1877.17 38.7064 1876.31 40.7915 1873.69 43.4026L1884.11 53.8192L1951.82 -13.8891L1941.4 -24.3058Z" stroke="#151515" stroke-opacity="0.1" stroke-width="20" stroke-miterlimit="10"/>
<path d="M1920.57 3.47211L1927.51 10.4165" stroke="#151515" stroke-opacity="0.05" stroke-width="20" stroke-miterlimit="10"/>
<path d="M1910.15 -6.94434L1917.1 0.000110626" stroke="#151515" stroke-opacity="0.1" stroke-width="20" stroke-miterlimit="10"/>
</g>
<circle cx="297" cy="110" r="39" stroke="#151515" stroke-opacity="0.1" stroke-width="2"/>
<g clip-path="url(#clip5_15_8)">
<path d="M314.361 100.278C313.317 101.322 312.483 101.667 310.889 101.667C307.701 101.667 305.333 99.2986 305.333 96.1111C305.333 94.5173 305.678 93.6833 306.722 92.6389L302.556 88.4722L275.472 115.556L279.639 119.722C280.683 118.678 281.517 118.333 283.111 118.333C286.299 118.333 288.667 120.701 288.667 123.889C288.667 125.483 288.322 126.317 287.278 127.361L291.444 131.528L318.528 104.444L314.361 100.278Z" stroke="#151515" stroke-opacity="0.1" stroke-width="2" stroke-miterlimit="10"/>
<path d="M292.833 98.1944L295.611 100.972" stroke="#151515" stroke-opacity="0.05" stroke-width="2" stroke-miterlimit="10"/>
<path d="M306.028 111.389L308.806 114.167" stroke="#151515" stroke-opacity="0.05" stroke-width="2" stroke-miterlimit="10"/>
<path d="M301.861 107.222L304.639 110" stroke="#151515" stroke-opacity="0.1" stroke-width="2" stroke-miterlimit="10"/>
</g>
<circle cx="1324" cy="126" r="95" stroke="#151515" stroke-opacity="0.1" stroke-width="10"/>
<g clip-path="url(#clip6_15_8)">
<path d="M1367.4 101.694C1364.79 104.305 1362.71 105.166 1358.72 105.166C1350.75 105.166 1344.83 99.2463 1344.83 91.2776C1344.83 87.2932 1345.69 85.2081 1348.31 82.597L1337.89 72.1804L1270.18 139.889L1280.6 150.305C1283.21 147.694 1285.29 146.833 1289.28 146.833C1297.25 146.833 1303.17 152.753 1303.17 160.722C1303.17 164.706 1302.31 166.791 1299.69 169.403L1310.11 179.819L1377.82 112.111L1367.4 101.694Z" stroke="#151515" stroke-opacity="0.1" stroke-width="10" stroke-miterlimit="10"/>
<path d="M1313.58 96.4857L1320.53 103.43" stroke="#151515" stroke-opacity="0.05" stroke-width="10" stroke-miterlimit="10"/>
<path d="M1346.57 129.472L1353.51 136.417" stroke="#151515" stroke-opacity="0.05" stroke-width="10" stroke-miterlimit="10"/>
<path d="M1336.15 119.056L1343.1 126" stroke="#151515" stroke-opacity="0.1" stroke-width="10" stroke-miterlimit="10"/>
</g>
<circle cx="982" cy="100" r="39" stroke="#151515" stroke-opacity="0.1" stroke-width="2"/>
<g clip-path="url(#clip7_15_8)">
<path d="M999.361 90.2778C998.317 91.3222 997.483 91.6666 995.889 91.6666C992.701 91.6666 990.333 89.2986 990.333 86.1111C990.333 84.5173 990.678 83.6833 991.722 82.6389L987.556 78.4722L960.472 105.556L964.639 109.722C965.683 108.678 966.517 108.333 968.111 108.333C971.299 108.333 973.667 110.701 973.667 113.889C973.667 115.483 973.322 116.317 972.278 117.361L976.444 121.528L1003.53 94.4444L999.361 90.2778Z" stroke="#151515" stroke-opacity="0.1" stroke-width="2" stroke-miterlimit="10"/>
<path d="M977.833 88.1944L980.611 90.9722" stroke="#151515" stroke-opacity="0.05" stroke-width="2" stroke-miterlimit="10"/>
<path d="M991.028 101.389L993.806 104.167" stroke="#151515" stroke-opacity="0.05" stroke-width="2" stroke-miterlimit="10"/>
<path d="M986.861 97.2223L989.639 100" stroke="#151515" stroke-opacity="0.1" stroke-width="2" stroke-miterlimit="10"/>
</g>
<circle cx="1588" cy="10" r="39" stroke="#151515" stroke-opacity="0.1" stroke-width="2"/>
<g clip-path="url(#clip8_15_8)">
<path d="M1605.36 0.277724C1604.32 1.32217 1603.48 1.66661 1601.89 1.66661C1598.7 1.66661 1596.33 -0.701443 1596.33 -3.88894C1596.33 -5.48269 1596.68 -6.31672 1597.72 -7.36117L1593.56 -11.5278L1566.47 15.5555L1570.64 19.7222C1571.68 18.6777 1572.52 18.3333 1574.11 18.3333C1577.3 18.3333 1579.67 20.7013 1579.67 23.8888C1579.67 25.4826 1579.32 26.3166 1578.28 27.3611L1582.44 31.5277L1609.53 4.44439L1605.36 0.277724Z" stroke="#151515" stroke-opacity="0.1" stroke-width="2" stroke-miterlimit="10"/>
<path d="M1583.83 -1.80566L1586.61 0.972118" stroke="#151515" stroke-opacity="0.05" stroke-width="2" stroke-miterlimit="10"/>
<path d="M1597.03 11.3889L1599.81 14.1666" stroke="#151515" stroke-opacity="0.05" stroke-width="2" stroke-miterlimit="10"/>
<path d="M1592.86 7.22229L1595.64 10.0001" stroke="#151515" stroke-opacity="0.1" stroke-width="2" stroke-miterlimit="10"/>
</g>
<circle cx="1138" cy="12" r="24" stroke="#151515" stroke-opacity="0.1" stroke-width="2"/>
<g clip-path="url(#clip9_15_8)">
<path d="M1148.85 5.92358C1148.2 6.57635 1147.68 6.79163 1146.68 6.79163C1144.69 6.79163 1143.21 5.3116 1143.21 3.31941C1143.21 2.32332 1143.42 1.80205 1144.08 1.14927L1141.47 -1.4549L1124.55 15.4722L1127.15 18.0764C1127.8 17.4236 1128.32 17.2083 1129.32 17.2083C1131.31 17.2083 1132.79 18.6883 1132.79 20.6805C1132.79 21.6766 1132.58 22.1979 1131.92 22.8507L1134.53 25.4548L1151.46 8.52774L1148.85 5.92358Z" stroke="#151515" stroke-opacity="0.1" stroke-width="2" stroke-miterlimit="10"/>
<path d="M1135.4 4.62146L1137.13 6.35757" stroke="#151515" stroke-opacity="0.05" stroke-width="2" stroke-miterlimit="10"/>
<path d="M1143.64 12.868L1145.38 14.6041" stroke="#151515" stroke-opacity="0.05" stroke-width="2" stroke-miterlimit="10"/>
<path d="M1141.04 10.264L1142.77 12.0001" stroke="#151515" stroke-opacity="0.1" stroke-width="2" stroke-miterlimit="10"/>
</g>
<circle cx="1701" cy="107" r="24" stroke="#151515" stroke-opacity="0.1" stroke-width="2"/>
<g clip-path="url(#clip10_15_8)">
<path d="M1711.85 100.924C1711.2 101.576 1710.68 101.792 1709.68 101.792C1707.69 101.792 1706.21 100.312 1706.21 98.3194C1706.21 97.3233 1706.42 96.802 1707.08 96.1493L1704.47 93.5451L1687.54 110.472L1690.15 113.076C1690.8 112.424 1691.32 112.208 1692.32 112.208C1694.31 112.208 1695.79 113.688 1695.79 115.681C1695.79 116.677 1695.58 117.198 1694.92 117.851L1697.53 120.455L1714.45 103.528L1711.85 100.924Z" stroke="#151515" stroke-opacity="0.1" stroke-width="2" stroke-miterlimit="10"/>
<path d="M1698.4 99.6214L1700.13 101.358" stroke="#151515" stroke-opacity="0.05" stroke-width="2" stroke-miterlimit="10"/>
<path d="M1706.64 107.868L1708.38 109.604" stroke="#151515" stroke-opacity="0.05" stroke-width="2" stroke-miterlimit="10"/>
<path d="M1704.04 105.264L1705.77 107" stroke="#151515" stroke-opacity="0.1" stroke-width="2" stroke-miterlimit="10"/>
</g>
</g>
<defs>
<clipPath id="clip0_15_8">
<rect width="111.111" height="111.111" fill="white" transform="translate(-29.5557 24.4443)"/>
</clipPath>
<clipPath id="clip1_15_8">
<rect width="111.111" height="111.111" fill="white" transform="translate(408.444 -43.5557)"/>
</clipPath>
<clipPath id="clip2_15_8">
<rect width="27.7778" height="27.7778" fill="white" transform="translate(186.111 29.1111)"/>
</clipPath>
<clipPath id="clip3_15_8">
<rect width="111.111" height="111.111" fill="white" transform="translate(707.444 14.4443)"/>
</clipPath>
<clipPath id="clip4_15_8">
<rect width="111.111" height="111.111" fill="white" transform="translate(1842.44 -55.5557)"/>
</clipPath>
<clipPath id="clip5_15_8">
<rect width="44.4445" height="44.4445" fill="white" transform="translate(274.778 87.7777)"/>
</clipPath>
<clipPath id="clip6_15_8">
<rect width="111.111" height="111.111" fill="white" transform="translate(1268.44 70.4443)"/>
</clipPath>
<clipPath id="clip7_15_8">
<rect width="44.4445" height="44.4445" fill="white" transform="translate(959.778 77.7777)"/>
</clipPath>
<clipPath id="clip8_15_8">
<rect width="44.4445" height="44.4445" fill="white" transform="translate(1565.78 -12.2223)"/>
</clipPath>
<clipPath id="clip9_15_8">
<rect width="27.7778" height="27.7778" fill="white" transform="translate(1124.11 -1.88892)"/>
</clipPath>
<clipPath id="clip10_15_8">
<rect width="27.7778" height="27.7778" fill="white" transform="translate(1687.11 93.1111)"/>
</clipPath>
</defs>
</svg>
