<svg width="186" height="156" viewBox="0 0 186 156" fill="none" xmlns="http://www.w3.org/2000/svg">
<path d="M40 76L48.9806 103.639H78.0423L54.5309 120.721L63.5114 148.361L40 131.279L16.4886 148.361L25.4691 120.721L1.95774 103.639H31.0194L40 76Z" fill="#BFA75D"/>
<path d="M93 0L104.226 34.5491H140.553L111.164 55.9017L122.389 90.4509L93 69.0983L63.6107 90.4509L74.8364 55.9017L45.4472 34.5491H81.7743L93 0Z" fill="#BFA75D"/>
<path fill-rule="evenodd" clip-rule="evenodd" d="M155.98 103.639L147 76L138.019 103.639H108.958L132.469 120.721L123.488 148.361L147 131.279L170.511 148.361L161.531 120.721L185.042 103.639H155.98ZM154.858 105.184L147 81L139.142 105.184H113.713L134.285 120.131L126.427 144.316L147 129.369L167.572 144.316L159.714 120.131L180.287 105.184H154.858Z" fill="#BFA75D"/>
</svg>
