<?xml version="1.0" standalone="no"?>
<!DOCTYPE svg PUBLIC "-//W3C//DTD SVG 20010904//EN"
 "http://www.w3.org/TR/2001/REC-SVG-20010904/DTD/svg10.dtd">
<svg version="1.0" xmlns="http://www.w3.org/2000/svg"
 width="700.000000pt" height="700.000000pt" viewBox="0 0 700.000000 700.000000"
 preserveAspectRatio="xMidYMid meet">
<metadata>
Created by potrace 1.14, written by Peter Selinger 2001-2017
</metadata>
<g transform="translate(0.000000,700.000000) scale(0.100000,-0.100000)"
fill="#000000" stroke="none">
<path d="M2087 4912 l-2087 -2087 0 -200 0 -200 383 -382 382 -382 111 108
c133 130 173 158 261 181 84 22 269 20 358 -4 221 -60 393 -232 451 -451 22
-85 27 -254 9 -339 -20 -95 -51 -143 -181 -275 l-113 -116 382 -383 382 -382
200 0 200 0 2088 2088 2087 2087 0 200 0 200 -382 382 -383 383 -105 -104
c-128 -126 -175 -160 -248 -182 -62 -18 -243 -25 -323 -11 -130 21 -246 82
-345 182 -121 122 -178 266 -179 455 -1 216 20 263 186 434 l118 121 -382 383
-382 382 -200 0 -200 0 -2088 -2088z m2634 1287 c-87 -141 -125 -291 -125
-504 0 -200 32 -340 116 -514 131 -268 381 -470 683 -549 157 -42 393 -49 535
-17 14 3 36 8 50 11 41 8 148 52 190 79 22 14 43 25 47 25 5 0 88 -80 186
-178 l177 -177 -610 -610 c-601 -601 -609 -609 -629 -591 -11 10 -73 72 -138
137 -64 66 -120 119 -125 119 -4 0 -76 -68 -159 -151 l-151 -152 141 -141 141
-141 -1213 -1213 -1212 -1212 -180 180 c-169 169 -179 181 -166 201 91 146
124 283 125 509 0 160 -22 283 -76 420 -126 321 -409 567 -739 644 -25 5 -38
8 -144 24 -58 9 -249 8 -315 -2 -132 -21 -229 -55 -329 -117 -20 -13 -32 -3
-201 166 l-180 180 1212 1212 1213 1213 141 -141 141 -141 152 151 c83 82 151
154 151 158 0 4 -62 70 -138 146 l-137 137 610 610 610 610 180 -180 c169
-169 179 -181 166 -201z"/>
<path d="M4263 3936 l-152 -152 220 -220 219 -219 150 150 c82 82 150 154 150
160 0 10 -421 435 -431 435 -2 -1 -72 -69 -156 -154z"/>
</g>
</svg>
