<svg width="161" height="25" viewBox="0 0 161 25" fill="none" xmlns="http://www.w3.org/2000/svg">
<path d="M32.672 10.232C32.9387 9.66667 33.3333 9.24 33.856 8.952C34.3893 8.664 35.0453 8.52 35.824 8.52V9.624L35.552 9.608C34.6667 9.608 33.9733 9.88 33.472 10.424C32.9707 10.968 32.72 11.7307 32.72 12.712V17H31.584V8.584H32.672V10.232ZM45.1308 13.144H38.0908C38.1548 14.0187 38.4908 14.728 39.0988 15.272C39.7068 15.8053 40.4748 16.072 41.4028 16.072C41.9254 16.072 42.4054 15.9813 42.8428 15.8C43.2801 15.608 43.6588 15.3307 43.9788 14.968L44.6188 15.704C44.2454 16.152 43.7761 16.4933 43.2108 16.728C42.6561 16.9627 42.0428 17.08 41.3708 17.08C40.5068 17.08 39.7388 16.8987 39.0668 16.536C38.4054 16.1627 37.8881 15.6507 37.5148 15C37.1414 14.3493 36.9548 13.6133 36.9548 12.792C36.9548 11.9707 37.1308 11.2347 37.4828 10.584C37.8454 9.93333 38.3361 9.42667 38.9548 9.064C39.5841 8.70133 40.2881 8.52 41.0668 8.52C41.8454 8.52 42.5441 8.70133 43.1628 9.064C43.7814 9.42667 44.2668 9.93333 44.6188 10.584C44.9708 11.224 45.1468 11.96 45.1468 12.792L45.1308 13.144ZM41.0668 9.496C40.2561 9.496 39.5734 9.75733 39.0188 10.28C38.4748 10.792 38.1654 11.464 38.0908 12.296H44.0588C43.9841 11.464 43.6694 10.792 43.1148 10.28C42.5708 9.75733 41.8881 9.496 41.0668 9.496ZM50.947 17.08C50.115 17.08 49.3683 16.8987 48.707 16.536C48.0563 16.1733 47.5443 15.6667 47.171 15.016C46.7977 14.3547 46.611 13.6133 46.611 12.792C46.611 11.9707 46.7977 11.2347 47.171 10.584C47.5443 9.93333 48.0563 9.42667 48.707 9.064C49.3683 8.70133 50.115 8.52 50.947 8.52C51.6723 8.52 52.3177 8.664 52.883 8.952C53.459 9.22933 53.9123 9.64 54.243 10.184L53.395 10.76C53.1177 10.344 52.7657 10.0347 52.339 9.832C51.9123 9.61867 51.4483 9.512 50.947 9.512C50.339 9.512 49.7897 9.65067 49.299 9.928C48.819 10.1947 48.4403 10.5787 48.163 11.08C47.8963 11.5813 47.763 12.152 47.763 12.792C47.763 13.4427 47.8963 14.0187 48.163 14.52C48.4403 15.0107 48.819 15.3947 49.299 15.672C49.7897 15.9387 50.339 16.072 50.947 16.072C51.4483 16.072 51.9123 15.9707 52.339 15.768C52.7657 15.5653 53.1177 15.256 53.395 14.84L54.243 15.416C53.9123 15.96 53.459 16.376 52.883 16.664C52.307 16.9413 51.6617 17.08 50.947 17.08ZM59.774 17.08C58.9633 17.08 58.2327 16.8987 57.582 16.536C56.9313 16.1627 56.4193 15.6507 56.046 15C55.6727 14.3493 55.486 13.6133 55.486 12.792C55.486 11.9707 55.6727 11.2347 56.046 10.584C56.4193 9.93333 56.9313 9.42667 57.582 9.064C58.2327 8.70133 58.9633 8.52 59.774 8.52C60.5847 8.52 61.3153 8.70133 61.966 9.064C62.6167 9.42667 63.1233 9.93333 63.486 10.584C63.8593 11.2347 64.046 11.9707 64.046 12.792C64.046 13.6133 63.8593 14.3493 63.486 15C63.1233 15.6507 62.6167 16.1627 61.966 16.536C61.3153 16.8987 60.5847 17.08 59.774 17.08ZM59.774 16.072C60.3713 16.072 60.9047 15.9387 61.374 15.672C61.854 15.3947 62.2273 15.0053 62.494 14.504C62.7607 14.0027 62.894 13.432 62.894 12.792C62.894 12.152 62.7607 11.5813 62.494 11.08C62.2273 10.5787 61.854 10.1947 61.374 9.928C60.9047 9.65067 60.3713 9.512 59.774 9.512C59.1767 9.512 58.638 9.65067 58.158 9.928C57.6887 10.1947 57.3153 10.5787 57.038 11.08C56.7713 11.5813 56.638 12.152 56.638 12.792C56.638 13.432 56.7713 14.0027 57.038 14.504C57.3153 15.0053 57.6887 15.3947 58.158 15.672C58.638 15.9387 59.1767 16.072 59.774 16.072ZM76.8613 8.52C77.9173 8.52 78.7439 8.824 79.3413 9.432C79.9493 10.04 80.2533 10.936 80.2533 12.12V17H79.1173V12.232C79.1173 11.3573 78.9039 10.6907 78.4773 10.232C78.0613 9.77333 77.4693 9.544 76.7013 9.544C75.8266 9.544 75.1386 9.816 74.6373 10.36C74.1359 10.8933 73.8853 11.6347 73.8853 12.584V17H72.7493V12.232C72.7493 11.3573 72.5359 10.6907 72.1093 10.232C71.6933 9.77333 71.0959 9.544 70.3173 9.544C69.4533 9.544 68.7653 9.816 68.2533 10.36C67.7519 10.8933 67.5013 11.6347 67.5013 12.584V17H66.3653V8.584H67.4533V10.12C67.7519 9.608 68.1679 9.21333 68.7013 8.936C69.2346 8.65867 69.8479 8.52 70.5413 8.52C71.2453 8.52 71.8533 8.66933 72.3653 8.968C72.8879 9.26667 73.2773 9.70933 73.5333 10.296C73.8426 9.74133 74.2853 9.30933 74.8613 9C75.4479 8.68 76.1146 8.52 76.8613 8.52ZM93.83 8.52C94.886 8.52 95.7127 8.824 96.31 9.432C96.918 10.04 97.222 10.936 97.222 12.12V17H96.086V12.232C96.086 11.3573 95.8727 10.6907 95.446 10.232C95.03 9.77333 94.438 9.544 93.67 9.544C92.7953 9.544 92.1073 9.816 91.606 10.36C91.1047 10.8933 90.854 11.6347 90.854 12.584V17H89.718V12.232C89.718 11.3573 89.5047 10.6907 89.078 10.232C88.662 9.77333 88.0647 9.544 87.286 9.544C86.422 9.544 85.734 9.816 85.222 10.36C84.7207 10.8933 84.47 11.6347 84.47 12.584V17H83.334V8.584H84.422V10.12C84.7207 9.608 85.1367 9.21333 85.67 8.936C86.2033 8.65867 86.8167 8.52 87.51 8.52C88.214 8.52 88.822 8.66933 89.334 8.968C89.8567 9.26667 90.246 9.70933 90.502 10.296C90.8113 9.74133 91.254 9.30933 91.83 9C92.4167 8.68 93.0833 8.52 93.83 8.52ZM107.662 13.144H100.622C100.686 14.0187 101.022 14.728 101.63 15.272C102.238 15.8053 103.006 16.072 103.934 16.072C104.457 16.072 104.937 15.9813 105.374 15.8C105.811 15.608 106.19 15.3307 106.51 14.968L107.15 15.704C106.777 16.152 106.307 16.4933 105.742 16.728C105.187 16.9627 104.574 17.08 103.902 17.08C103.038 17.08 102.27 16.8987 101.598 16.536C100.937 16.1627 100.419 15.6507 100.046 15C99.6727 14.3493 99.486 13.6133 99.486 12.792C99.486 11.9707 99.662 11.2347 100.014 10.584C100.377 9.93333 100.867 9.42667 101.486 9.064C102.115 8.70133 102.819 8.52 103.598 8.52C104.377 8.52 105.075 8.70133 105.694 9.064C106.313 9.42667 106.798 9.93333 107.15 10.584C107.502 11.224 107.678 11.96 107.678 12.792L107.662 13.144ZM103.598 9.496C102.787 9.496 102.105 9.75733 101.55 10.28C101.006 10.792 100.697 11.464 100.622 12.296H106.59C106.515 11.464 106.201 10.792 105.646 10.28C105.102 9.75733 104.419 9.496 103.598 9.496ZM114.278 8.52C115.334 8.52 116.172 8.82933 116.79 9.448C117.42 10.056 117.734 10.9467 117.734 12.12V17H116.598V12.232C116.598 11.3573 116.38 10.6907 115.942 10.232C115.505 9.77333 114.881 9.544 114.07 9.544C113.164 9.544 112.444 9.816 111.91 10.36C111.388 10.8933 111.126 11.6347 111.126 12.584V17H109.99V8.584H111.078V10.136C111.388 9.624 111.814 9.22933 112.358 8.952C112.913 8.664 113.553 8.52 114.278 8.52ZM128.53 5.128V17H127.442V15.336C127.1 15.9013 126.647 16.3333 126.082 16.632C125.527 16.9307 124.898 17.08 124.194 17.08C123.404 17.08 122.69 16.8987 122.05 16.536C121.41 16.1733 120.908 15.6667 120.546 15.016C120.183 14.3653 120.002 13.624 120.002 12.792C120.002 11.96 120.183 11.2187 120.546 10.568C120.908 9.91733 121.41 9.416 122.05 9.064C122.69 8.70133 123.404 8.52 124.194 8.52C124.876 8.52 125.49 8.664 126.034 8.952C126.588 9.22933 127.042 9.64 127.394 10.184V5.128H128.53ZM124.29 16.072C124.876 16.072 125.404 15.9387 125.874 15.672C126.354 15.3947 126.727 15.0053 126.994 14.504C127.271 14.0027 127.41 13.432 127.41 12.792C127.41 12.152 127.271 11.5813 126.994 11.08C126.727 10.5787 126.354 10.1947 125.874 9.928C125.404 9.65067 124.876 9.512 124.29 9.512C123.692 9.512 123.154 9.65067 122.674 9.928C122.204 10.1947 121.831 10.5787 121.554 11.08C121.287 11.5813 121.154 12.152 121.154 12.792C121.154 13.432 121.287 14.0027 121.554 14.504C121.831 15.0053 122.204 15.3947 122.674 15.672C123.154 15.9387 123.692 16.072 124.29 16.072ZM131.805 17.08C131.571 17.08 131.368 16.9947 131.197 16.824C131.037 16.6533 130.957 16.4453 130.957 16.2C130.957 15.9547 131.037 15.752 131.197 15.592C131.368 15.4213 131.571 15.336 131.805 15.336C132.04 15.336 132.243 15.4213 132.413 15.592C132.584 15.752 132.669 15.9547 132.669 16.2C132.669 16.4453 132.584 16.6533 132.413 16.824C132.243 16.9947 132.04 17.08 131.805 17.08ZM145.58 8.52C146.636 8.52 147.463 8.824 148.06 9.432C148.668 10.04 148.972 10.936 148.972 12.12V17H147.836V12.232C147.836 11.3573 147.623 10.6907 147.196 10.232C146.78 9.77333 146.188 9.544 145.42 9.544C144.545 9.544 143.857 9.816 143.356 10.36C142.855 10.8933 142.604 11.6347 142.604 12.584V17H141.468V12.232C141.468 11.3573 141.255 10.6907 140.828 10.232C140.412 9.77333 139.815 9.544 139.036 9.544C138.172 9.544 137.484 9.816 136.972 10.36C136.471 10.8933 136.22 11.6347 136.22 12.584V17H135.084V8.584H136.172V10.12C136.471 9.608 136.887 9.21333 137.42 8.936C137.953 8.65867 138.567 8.52 139.26 8.52C139.964 8.52 140.572 8.66933 141.084 8.968C141.607 9.26667 141.996 9.70933 142.252 10.296C142.561 9.74133 143.004 9.30933 143.58 9C144.167 8.68 144.833 8.52 145.58 8.52ZM159.412 13.144H152.372C152.436 14.0187 152.772 14.728 153.38 15.272C153.988 15.8053 154.756 16.072 155.684 16.072C156.207 16.072 156.687 15.9813 157.124 15.8C157.561 15.608 157.94 15.3307 158.26 14.968L158.9 15.704C158.527 16.152 158.057 16.4933 157.492 16.728C156.937 16.9627 156.324 17.08 155.652 17.08C154.788 17.08 154.02 16.8987 153.348 16.536C152.687 16.1627 152.169 15.6507 151.796 15C151.423 14.3493 151.236 13.6133 151.236 12.792C151.236 11.9707 151.412 11.2347 151.764 10.584C152.127 9.93333 152.617 9.42667 153.236 9.064C153.865 8.70133 154.569 8.52 155.348 8.52C156.127 8.52 156.825 8.70133 157.444 9.064C158.063 9.42667 158.548 9.93333 158.9 10.584C159.252 11.224 159.428 11.96 159.428 12.792L159.412 13.144ZM155.348 9.496C154.537 9.496 153.855 9.75733 153.3 10.28C152.756 10.792 152.447 11.464 152.372 12.296H158.34C158.265 11.464 157.951 10.792 157.396 10.28C156.852 9.75733 156.169 9.496 155.348 9.496Z" fill="white"/>
<g clip-path="url(#clip0_15_101)">
<path d="M22.2656 7.03125C21.6781 7.61875 21.209 7.8125 20.3125 7.8125C18.5195 7.8125 17.1875 6.48047 17.1875 4.6875C17.1875 3.79102 17.3813 3.32187 17.9688 2.73438L15.625 0.390625L0.390625 15.625L2.73438 17.9688C3.32187 17.3813 3.79102 17.1875 4.6875 17.1875C6.48047 17.1875 7.8125 18.5195 7.8125 20.3125C7.8125 21.209 7.61875 21.6781 7.03125 22.2656L9.375 24.6094L24.6094 9.375L22.2656 7.03125Z" stroke="#BFA75D" stroke-miterlimit="10"/>
<path d="M10.1562 5.85938L11.7188 7.42188" stroke="#BFA75D" stroke-miterlimit="10"/>
<path d="M17.5781 13.2812L19.1406 14.8438" stroke="#BFA75D" stroke-miterlimit="10"/>
<path d="M15.2344 10.9375L16.7969 12.5" stroke="#BFA75D" stroke-miterlimit="10"/>
</g>
<defs>
<clipPath id="clip0_15_101">
<rect width="25" height="25" fill="white"/>
</clipPath>
</defs>
</svg>
