<svg width="153" height="25" viewBox="0 0 153 25" fill="none" xmlns="http://www.w3.org/2000/svg">
<path d="M32.672 10.232C32.9387 9.66667 33.3333 9.24 33.856 8.952C34.3893 8.664 35.0453 8.52 35.824 8.52V9.624L35.552 9.608C34.6667 9.608 33.9733 9.88 33.472 10.424C32.9707 10.968 32.72 11.7307 32.72 12.712V17H31.584V8.584H32.672V10.232ZM45.1308 13.144H38.0908C38.1548 14.0187 38.4908 14.728 39.0988 15.272C39.7068 15.8053 40.4748 16.072 41.4028 16.072C41.9254 16.072 42.4054 15.9813 42.8428 15.8C43.2801 15.608 43.6588 15.3307 43.9788 14.968L44.6188 15.704C44.2454 16.152 43.7761 16.4933 43.2108 16.728C42.6561 16.9627 42.0428 17.08 41.3708 17.08C40.5068 17.08 39.7388 16.8987 39.0668 16.536C38.4054 16.1627 37.8881 15.6507 37.5148 15C37.1414 14.3493 36.9548 13.6133 36.9548 12.792C36.9548 11.9707 37.1308 11.2347 37.4828 10.584C37.8454 9.93333 38.3361 9.42667 38.9548 9.064C39.5841 8.70133 40.2881 8.52 41.0668 8.52C41.8454 8.52 42.5441 8.70133 43.1628 9.064C43.7814 9.42667 44.2668 9.93333 44.6188 10.584C44.9708 11.224 45.1468 11.96 45.1468 12.792L45.1308 13.144ZM41.0668 9.496C40.2561 9.496 39.5734 9.75733 39.0188 10.28C38.4748 10.792 38.1654 11.464 38.0908 12.296H44.0588C43.9841 11.464 43.6694 10.792 43.1148 10.28C42.5708 9.75733 41.8881 9.496 41.0668 9.496ZM50.947 17.08C50.115 17.08 49.3683 16.8987 48.707 16.536C48.0563 16.1733 47.5443 15.6667 47.171 15.016C46.7977 14.3547 46.611 13.6133 46.611 12.792C46.611 11.9707 46.7977 11.2347 47.171 10.584C47.5443 9.93333 48.0563 9.42667 48.707 9.064C49.3683 8.70133 50.115 8.52 50.947 8.52C51.6723 8.52 52.3177 8.664 52.883 8.952C53.459 9.22933 53.9123 9.64 54.243 10.184L53.395 10.76C53.1177 10.344 52.7657 10.0347 52.339 9.832C51.9123 9.61867 51.4483 9.512 50.947 9.512C50.339 9.512 49.7897 9.65067 49.299 9.928C48.819 10.1947 48.4403 10.5787 48.163 11.08C47.8963 11.5813 47.763 12.152 47.763 12.792C47.763 13.4427 47.8963 14.0187 48.163 14.52C48.4403 15.0107 48.819 15.3947 49.299 15.672C49.7897 15.9387 50.339 16.072 50.947 16.072C51.4483 16.072 51.9123 15.9707 52.339 15.768C52.7657 15.5653 53.1177 15.256 53.395 14.84L54.243 15.416C53.9123 15.96 53.459 16.376 52.883 16.664C52.307 16.9413 51.6617 17.08 50.947 17.08ZM59.822 17.08C58.99 17.08 58.2433 16.8987 57.582 16.536C56.9313 16.1733 56.4193 15.6667 56.046 15.016C55.6727 14.3547 55.486 13.6133 55.486 12.792C55.486 11.9707 55.6727 11.2347 56.046 10.584C56.4193 9.93333 56.9313 9.42667 57.582 9.064C58.2433 8.70133 58.99 8.52 59.822 8.52C60.5473 8.52 61.1927 8.664 61.758 8.952C62.334 9.22933 62.7873 9.64 63.118 10.184L62.27 10.76C61.9927 10.344 61.6407 10.0347 61.214 9.832C60.7873 9.61867 60.3233 9.512 59.822 9.512C59.214 9.512 58.6647 9.65067 58.174 9.928C57.694 10.1947 57.3153 10.5787 57.038 11.08C56.7713 11.5813 56.638 12.152 56.638 12.792C56.638 13.4427 56.7713 14.0187 57.038 14.52C57.3153 15.0107 57.694 15.3947 58.174 15.672C58.6647 15.9387 59.214 16.072 59.822 16.072C60.3233 16.072 60.7873 15.9707 61.214 15.768C61.6407 15.5653 61.9927 15.256 62.27 14.84L63.118 15.416C62.7873 15.96 62.334 16.376 61.758 16.664C61.182 16.9413 60.5367 17.08 59.822 17.08ZM68.649 17.08C67.8383 17.08 67.1077 16.8987 66.457 16.536C65.8063 16.1627 65.2943 15.6507 64.921 15C64.5477 14.3493 64.361 13.6133 64.361 12.792C64.361 11.9707 64.5477 11.2347 64.921 10.584C65.2943 9.93333 65.8063 9.42667 66.457 9.064C67.1077 8.70133 67.8383 8.52 68.649 8.52C69.4597 8.52 70.1903 8.70133 70.841 9.064C71.4917 9.42667 71.9983 9.93333 72.361 10.584C72.7343 11.2347 72.921 11.9707 72.921 12.792C72.921 13.6133 72.7343 14.3493 72.361 15C71.9983 15.6507 71.4917 16.1627 70.841 16.536C70.1903 16.8987 69.4597 17.08 68.649 17.08ZM68.649 16.072C69.2463 16.072 69.7797 15.9387 70.249 15.672C70.729 15.3947 71.1023 15.0053 71.369 14.504C71.6357 14.0027 71.769 13.432 71.769 12.792C71.769 12.152 71.6357 11.5813 71.369 11.08C71.1023 10.5787 70.729 10.1947 70.249 9.928C69.7797 9.65067 69.2463 9.512 68.649 9.512C68.0517 9.512 67.513 9.65067 67.033 9.928C66.5637 10.1947 66.1903 10.5787 65.913 11.08C65.6463 11.5813 65.513 12.152 65.513 12.792C65.513 13.432 65.6463 14.0027 65.913 14.504C66.1903 15.0053 66.5637 15.3947 67.033 15.672C67.513 15.9387 68.0517 16.072 68.649 16.072ZM85.7363 8.52C86.7923 8.52 87.6189 8.824 88.2163 9.432C88.8243 10.04 89.1283 10.936 89.1283 12.12V17H87.9923V12.232C87.9923 11.3573 87.7789 10.6907 87.3523 10.232C86.9363 9.77333 86.3443 9.544 85.5763 9.544C84.7016 9.544 84.0136 9.816 83.5123 10.36C83.0109 10.8933 82.7603 11.6347 82.7603 12.584V17H81.6243V12.232C81.6243 11.3573 81.4109 10.6907 80.9843 10.232C80.5683 9.77333 79.9709 9.544 79.1923 9.544C78.3283 9.544 77.6403 9.816 77.1283 10.36C76.6269 10.8933 76.3763 11.6347 76.3763 12.584V17H75.2403V8.584H76.3283V10.12C76.6269 9.608 77.0429 9.21333 77.5763 8.936C78.1096 8.65867 78.7229 8.52 79.4163 8.52C80.1203 8.52 80.7283 8.66933 81.2403 8.968C81.7629 9.26667 82.1523 9.70933 82.4083 10.296C82.7176 9.74133 83.1603 9.30933 83.7363 9C84.3229 8.68 84.9896 8.52 85.7363 8.52ZM99.5683 13.144H92.5283C92.5923 14.0187 92.9283 14.728 93.5363 15.272C94.1443 15.8053 94.9123 16.072 95.8403 16.072C96.3629 16.072 96.8429 15.9813 97.2803 15.8C97.7176 15.608 98.0963 15.3307 98.4163 14.968L99.0563 15.704C98.6829 16.152 98.2136 16.4933 97.6483 16.728C97.0936 16.9627 96.4803 17.08 95.8083 17.08C94.9443 17.08 94.1763 16.8987 93.5043 16.536C92.8429 16.1627 92.3256 15.6507 91.9523 15C91.5789 14.3493 91.3923 13.6133 91.3923 12.792C91.3923 11.9707 91.5683 11.2347 91.9203 10.584C92.2829 9.93333 92.7736 9.42667 93.3923 9.064C94.0216 8.70133 94.7256 8.52 95.5043 8.52C96.2829 8.52 96.9816 8.70133 97.6003 9.064C98.2189 9.42667 98.7043 9.93333 99.0563 10.584C99.4083 11.224 99.5843 11.96 99.5843 12.792L99.5683 13.144ZM95.5043 9.496C94.6936 9.496 94.0109 9.75733 93.4563 10.28C92.9123 10.792 92.6029 11.464 92.5283 12.296H98.4963C98.4216 11.464 98.1069 10.792 97.5523 10.28C97.0083 9.75733 96.3256 9.496 95.5043 9.496ZM106.185 8.52C107.241 8.52 108.078 8.82933 108.697 9.448C109.326 10.056 109.641 10.9467 109.641 12.12V17H108.505V12.232C108.505 11.3573 108.286 10.6907 107.849 10.232C107.411 9.77333 106.787 9.544 105.977 9.544C105.07 9.544 104.35 9.816 103.817 10.36C103.294 10.8933 103.033 11.6347 103.033 12.584V17H101.897V8.584H102.985V10.136C103.294 9.624 103.721 9.22933 104.265 8.952C104.819 8.664 105.459 8.52 106.185 8.52ZM120.436 5.128V17H119.348V15.336C119.007 15.9013 118.553 16.3333 117.988 16.632C117.433 16.9307 116.804 17.08 116.1 17.08C115.311 17.08 114.596 16.8987 113.956 16.536C113.316 16.1733 112.815 15.6667 112.452 15.016C112.089 14.3653 111.908 13.624 111.908 12.792C111.908 11.96 112.089 11.2187 112.452 10.568C112.815 9.91733 113.316 9.416 113.956 9.064C114.596 8.70133 115.311 8.52 116.1 8.52C116.783 8.52 117.396 8.664 117.94 8.952C118.495 9.22933 118.948 9.64 119.3 10.184V5.128H120.436ZM116.196 16.072C116.783 16.072 117.311 15.9387 117.78 15.672C118.26 15.3947 118.633 15.0053 118.9 14.504C119.177 14.0027 119.316 13.432 119.316 12.792C119.316 12.152 119.177 11.5813 118.9 11.08C118.633 10.5787 118.26 10.1947 117.78 9.928C117.311 9.65067 116.783 9.512 116.196 9.512C115.599 9.512 115.06 9.65067 114.58 9.928C114.111 10.1947 113.737 10.5787 113.46 11.08C113.193 11.5813 113.06 12.152 113.06 12.792C113.06 13.432 113.193 14.0027 113.46 14.504C113.737 15.0053 114.111 15.3947 114.58 15.672C115.06 15.9387 115.599 16.072 116.196 16.072ZM123.712 17.08C123.477 17.08 123.274 16.9947 123.104 16.824C122.944 16.6533 122.864 16.4453 122.864 16.2C122.864 15.9547 122.944 15.752 123.104 15.592C123.274 15.4213 123.477 15.336 123.712 15.336C123.946 15.336 124.149 15.4213 124.32 15.592C124.49 15.752 124.576 15.9547 124.576 16.2C124.576 16.4453 124.49 16.6533 124.32 16.824C124.149 16.9947 123.946 17.08 123.712 17.08ZM137.486 8.52C138.542 8.52 139.369 8.824 139.966 9.432C140.574 10.04 140.878 10.936 140.878 12.12V17H139.742V12.232C139.742 11.3573 139.529 10.6907 139.102 10.232C138.686 9.77333 138.094 9.544 137.326 9.544C136.452 9.544 135.764 9.816 135.262 10.36C134.761 10.8933 134.51 11.6347 134.51 12.584V17H133.374V12.232C133.374 11.3573 133.161 10.6907 132.734 10.232C132.318 9.77333 131.721 9.544 130.942 9.544C130.078 9.544 129.39 9.816 128.878 10.36C128.377 10.8933 128.126 11.6347 128.126 12.584V17H126.99V8.584H128.078V10.12C128.377 9.608 128.793 9.21333 129.326 8.936C129.86 8.65867 130.473 8.52 131.166 8.52C131.87 8.52 132.478 8.66933 132.99 8.968C133.513 9.26667 133.902 9.70933 134.158 10.296C134.468 9.74133 134.91 9.30933 135.486 9C136.073 8.68 136.74 8.52 137.486 8.52ZM151.318 13.144H144.278C144.342 14.0187 144.678 14.728 145.286 15.272C145.894 15.8053 146.662 16.072 147.59 16.072C148.113 16.072 148.593 15.9813 149.03 15.8C149.468 15.608 149.846 15.3307 150.166 14.968L150.806 15.704C150.433 16.152 149.964 16.4933 149.398 16.728C148.844 16.9627 148.23 17.08 147.558 17.08C146.694 17.08 145.926 16.8987 145.254 16.536C144.593 16.1627 144.076 15.6507 143.702 15C143.329 14.3493 143.142 13.6133 143.142 12.792C143.142 11.9707 143.318 11.2347 143.67 10.584C144.033 9.93333 144.524 9.42667 145.142 9.064C145.772 8.70133 146.476 8.52 147.254 8.52C148.033 8.52 148.732 8.70133 149.35 9.064C149.969 9.42667 150.454 9.93333 150.806 10.584C151.158 11.224 151.334 11.96 151.334 12.792L151.318 13.144ZM147.254 9.496C146.444 9.496 145.761 9.75733 145.206 10.28C144.662 10.792 144.353 11.464 144.278 12.296H150.246C150.172 11.464 149.857 10.792 149.302 10.28C148.758 9.75733 148.076 9.496 147.254 9.496Z" fill="white"/>
<g clip-path="url(#clip0_15_101)">
<path d="M22.2656 7.03125C21.6781 7.61875 21.209 7.8125 20.3125 7.8125C18.5195 7.8125 17.1875 6.48047 17.1875 4.6875C17.1875 3.79102 17.3813 3.32187 17.9688 2.73438L15.625 0.390625L0.390625 15.625L2.73438 17.9688C3.32187 17.3813 3.79102 17.1875 4.6875 17.1875C6.48047 17.1875 7.8125 18.5195 7.8125 20.3125C7.8125 21.209 7.61875 21.6781 7.03125 22.2656L9.375 24.6094L24.6094 9.375L22.2656 7.03125Z" stroke="#BFA75D" stroke-miterlimit="10"/>
<path d="M10.1562 5.85938L11.7188 7.42188" stroke="#BFA75D" stroke-miterlimit="10"/>
<path d="M17.5781 13.2812L19.1406 14.8438" stroke="#BFA75D" stroke-miterlimit="10"/>
<path d="M15.2344 10.9375L16.7969 12.5" stroke="#BFA75D" stroke-miterlimit="10"/>
</g>
<defs>
<clipPath id="clip0_15_101">
<rect width="25" height="25" fill="white"/>
</clipPath>
</defs>
</svg>
